<svg xmlns="http://www.w3.org/2000/svg" width="150" height="30" viewBox="0 0 150 30">
  <g fill="#ffffff">
    <path d="M10,5 L5,5 L5,25 L10,25 L10,5 Z M5,0 L10,0 L10,4 L5,4 L5,0 Z"/>
    <circle cx="7.5" cy="2" r="2"/>
    <path d="M15,10 L15,25 L20,25 L20,10 C20,8 21,5 25,5 L25,0 C18,0 15,5 15,10 Z"/>
    <path d="M30,10 L30,25 L35,25 L35,10 C35,8 36,5 40,5 L40,0 C33,0 30,5 30,10 Z"/>
    <path d="M45,5 L45,25 L50,25 L50,15 C50,10 53,10 55,10 C57,10 60,10 60,15 L60,25 L65,25 L65,15 C65,7 60,5 55,5 C53,5 51,6 50,7 L50,5 L45,5 Z"/>
    <path d="M70,5 L70,25 L75,25 L75,15 C75,10 78,10 80,10 C82,10 85,10 85,15 L85,25 L90,25 L90,15 C90,7 85,5 80,5 C78,5 76,6 75,7 L75,5 L70,5 Z"/>
    <path d="M100,5 L95,5 L95,25 L100,25 L100,5 Z M95,0 L100,0 L100,4 L95,4 L95,0 Z"/>
    <path d="M105,15 C105,10 109,5 115,5 C121,5 125,10 125,15 C125,20 121,25 115,25 C109,25 105,20 105,15 Z M110,15 C110,18 112,20 115,20 C118,20 120,18 120,15 C120,12 118,10 115,10 C112,10 110,12 110,15 Z"/>
  </g>
</svg>
